<?xml version="1.0" encoding="utf-8"?>
<!-- Generator: Adobe Illustrator 16.0.0, SVG Export Plug-In . SVG Version: 6.00 Build 0)  -->
<!DOCTYPE svg PUBLIC "-//W3C//DTD SVG 1.1//EN" "http://www.w3.org/Graphics/SVG/1.1/DTD/svg11.dtd">
<svg version="1.1" id="Layer_1" xmlns="http://www.w3.org/2000/svg" xmlns:xlink="http://www.w3.org/1999/xlink" x="0px" y="0px"
	 width="258.536px" height="73.625px" viewBox="29.399 24.195 258.536 73.625"
	 enable-background="new 29.399 24.195 258.536 73.625" xml:space="preserve">
<g>
	<path fill="#26C0D5" d="M200.108,41.198H82.143v16.949H68.175v5.647h10.898V66H61.285V54.771h16.867V41.198h-31.75v39.618h47.554
		V65.519l6.319,15.297h12.965l-6.298-15.297h6.307v15.297h12.972v-5.029h10.059v5.029h14.881V63.796h10.225v-5.647h-10.225v-3.376
		h13.895v26.045h14.881V63.796h9.992v-5.647h-9.992v-3.376h13.666v26.045h14.886V56.494h-8.379L200.108,41.198L200.108,41.198z
		 M109.597,56.632h-9.991V46.433h9.991V56.632z M136.28,65.726h-10.059v-8.819h10.059V65.726z"/>
	<path fill="#EE2557" d="M209.366,41.198h-9.258v15.295h9.258h3.145v24.322h14.814V56.494h3.99v24.322h39.459l0.158-39.618H209.366z
		 M256.118,65.934h-9.988v-9.922h9.988V65.934z"/>
</g>
</svg>
