<?xml version="1.0" encoding="utf-8"?>
<!-- Generator: Adobe Illustrator 16.0.0, SVG Export Plug-In . SVG Version: 6.00 Build 0)  -->
<!DOCTYPE svg PUBLIC "-//W3C//DTD SVG 1.1//EN" "http://www.w3.org/Graphics/SVG/1.1/DTD/svg11.dtd">
<svg version="1.1" id="Layer_1" xmlns="http://www.w3.org/2000/svg" xmlns:xlink="http://www.w3.org/1999/xlink" x="0px" y="0px"
	 width="310.997px" height="123.39px" viewBox="4.516 -0.688 310.997 123.39" enable-background="new 4.516 -0.688 310.997 123.39"
	 xml:space="preserve">
<g>
	<path fill="#26C0D5" d="M202.803,41.198H82.143v16.949H68.175v5.648h10.898v2.205H61.285V54.771h16.867V41.198h-31.75v39.618
		h47.554V65.519l6.319,15.297h12.965l-6.298-15.297h6.307v15.297h12.972v-5.029h10.059v5.029h17.576V63.796h10.225v-5.648h-10.225
		v-3.376h13.895v26.045h14.881V63.796h9.992v-5.648h-9.992v-3.376h13.666v26.045h14.885V56.494h-8.379V41.198L202.803,41.198z
		 M109.597,56.632h-9.991V46.433h9.991V56.632z M136.28,65.726h-10.059v-8.819h10.059V65.726z"/>
	<path fill="#EE2557" d="M212.061,41.198h-9.258v15.295h9.258h3.145v24.322h14.814V56.494h3.99v24.322h39.459l0.158-39.618H212.061z
		 M258.813,65.934h-9.988v-9.922h9.988V65.934z"/>
</g>
</svg>
